solid OpenSCAD_Model
  facet normal -1 0 0
    outer loop
      vertex -26.25 -84 -54.5
      vertex -26.25 -82 0
      vertex -26.25 -82 -54.5
    endloop
  endfacet
  facet normal -1 -0 0
    outer loop
      vertex -26.25 -82 0
      vertex -26.25 -84 -54.5
      vertex -26.25 -84 0
    endloop
  endfacet
  facet normal -0 0 1
    outer loop
      vertex 22.25 -82 0
      vertex 26.25 -84 0
      vertex 26.25 -82 0
    endloop
  endfacet
  facet normal 0 0 1
    outer loop
      vertex 26.25 -84 0
      vertex 22.25 -82 0
      vertex 22.25 -84 0
    endloop
  endfacet
  facet normal -0 0 1
    outer loop
      vertex -26.25 -82 0
      vertex -22.25 -84 0
      vertex -22.25 -82 0
    endloop
  endfacet
  facet normal 0 0 1
    outer loop
      vertex -22.25 -84 0
      vertex -26.25 -82 0
      vertex -26.25 -84 0
    endloop
  endfacet
  facet normal 1 -0 0
    outer loop
      vertex 26.25 -84 0
      vertex 26.25 -82 -54.5
      vertex 26.25 -82 0
    endloop
  endfacet
  facet normal 1 0 0
    outer loop
      vertex 26.25 -82 -54.5
      vertex 26.25 -84 0
      vertex 26.25 -84 -54.5
    endloop
  endfacet
  facet normal 0 1 0
    outer loop
      vertex 12.892 -82 -19.3576
      vertex 22.25 -82 0
      vertex 26.25 -82 0
    endloop
  endfacet
  facet normal 0 1 0
    outer loop
      vertex 22.25 -82 0
      vertex 0 -82 -13
      vertex -22.25 -82 0
    endloop
  endfacet
  facet normal 0 1 -0
    outer loop
      vertex -2.12105 -82 -13.139
      vertex -22.25 -82 0
      vertex 0 -82 -13
    endloop
  endfacet
  facet normal 0 1 0
    outer loop
      vertex 22.25 -82 0
      vertex 2.12105 -82 -13.139
      vertex 0 -82 -13
    endloop
  endfacet
  facet normal 0 1 0
    outer loop
      vertex 22.25 -82 0
      vertex 4.20581 -82 -13.5537
      vertex 2.12105 -82 -13.139
    endloop
  endfacet
  facet normal 0 1 0
    outer loop
      vertex 22.25 -82 0
      vertex 6.21861 -82 -14.237
      vertex 4.20581 -82 -13.5537
    endloop
  endfacet
  facet normal 0 1 0
    outer loop
      vertex 22.25 -82 0
      vertex 8.125 -82 -15.1771
      vertex 6.21861 -82 -14.237
    endloop
  endfacet
  facet normal 0 1 0
    outer loop
      vertex 22.25 -82 0
      vertex 9.89237 -82 -16.358
      vertex 8.125 -82 -15.1771
    endloop
  endfacet
  facet normal 0 1 0
    outer loop
      vertex 22.25 -82 0
      vertex 11.4905 -82 -17.7595
      vertex 9.89237 -82 -16.358
    endloop
  endfacet
  facet normal 0 1 0
    outer loop
      vertex 22.25 -82 0
      vertex 12.892 -82 -19.3576
      vertex 11.4905 -82 -17.7595
    endloop
  endfacet
  facet normal 0 1 0
    outer loop
      vertex 26.25 -82 0
      vertex 14.0729 -82 -21.125
      vertex 12.892 -82 -19.3576
    endloop
  endfacet
  facet normal 0 1 0
    outer loop
      vertex 26.25 -82 0
      vertex 15.013 -82 -23.0314
      vertex 14.0729 -82 -21.125
    endloop
  endfacet
  facet normal 0 1 0
    outer loop
      vertex 26.25 -82 0
      vertex 15.6963 -82 -25.0442
      vertex 15.013 -82 -23.0314
    endloop
  endfacet
  facet normal 0 1 0
    outer loop
      vertex 26.25 -82 0
      vertex 16.111 -82 -27.1289
      vertex 15.6963 -82 -25.0442
    endloop
  endfacet
  facet normal 0 1 0
    outer loop
      vertex 26.25 -82 0
      vertex 16.25 -82 -29.25
      vertex 16.111 -82 -27.1289
    endloop
  endfacet
  facet normal 0 1 -0
    outer loop
      vertex 26.25 -82 -54.5
      vertex 16.25 -82 -29.25
      vertex 26.25 -82 0
    endloop
  endfacet
  facet normal 0 1 0
    outer loop
      vertex 16.25 -82 -29.25
      vertex 26.25 -82 -54.5
      vertex 16.111 -82 -31.371
    endloop
  endfacet
  facet normal 0 1 0
    outer loop
      vertex 2.12105 -82 -45.361
      vertex 26.25 -82 -54.5
      vertex 0 -82 -45.5
    endloop
  endfacet
  facet normal 0 1 0
    outer loop
      vertex 4.20581 -82 -44.9463
      vertex 26.25 -82 -54.5
      vertex 2.12105 -82 -45.361
    endloop
  endfacet
  facet normal 0 1 0
    outer loop
      vertex 6.21861 -82 -44.263
      vertex 26.25 -82 -54.5
      vertex 4.20581 -82 -44.9463
    endloop
  endfacet
  facet normal 0 1 0
    outer loop
      vertex 8.125 -82 -43.3229
      vertex 26.25 -82 -54.5
      vertex 6.21861 -82 -44.263
    endloop
  endfacet
  facet normal 0 1 0
    outer loop
      vertex 9.89237 -82 -42.142
      vertex 26.25 -82 -54.5
      vertex 8.125 -82 -43.3229
    endloop
  endfacet
  facet normal 0 1 0
    outer loop
      vertex 11.4905 -82 -40.7405
      vertex 26.25 -82 -54.5
      vertex 9.89237 -82 -42.142
    endloop
  endfacet
  facet normal 0 1 0
    outer loop
      vertex 12.892 -82 -39.1424
      vertex 26.25 -82 -54.5
      vertex 11.4905 -82 -40.7405
    endloop
  endfacet
  facet normal 0 1 0
    outer loop
      vertex 14.0729 -82 -37.375
      vertex 26.25 -82 -54.5
      vertex 12.892 -82 -39.1424
    endloop
  endfacet
  facet normal 0 1 0
    outer loop
      vertex 15.013 -82 -35.4686
      vertex 26.25 -82 -54.5
      vertex 14.0729 -82 -37.375
    endloop
  endfacet
  facet normal 0 1 0
    outer loop
      vertex 15.6963 -82 -33.4558
      vertex 26.25 -82 -54.5
      vertex 15.013 -82 -35.4686
    endloop
  endfacet
  facet normal 0 1 0
    outer loop
      vertex 16.111 -82 -31.371
      vertex 26.25 -82 -54.5
      vertex 15.6963 -82 -33.4558
    endloop
  endfacet
  facet normal 0 1 -0
    outer loop
      vertex 22.25 -82 0
      vertex -22.25 -82 2
      vertex 22.25 -82 2
    endloop
  endfacet
  facet normal 0 1 0
    outer loop
      vertex -22.25 -82 2
      vertex 22.25 -82 0
      vertex -22.25 -82 0
    endloop
  endfacet
  facet normal 0 1 -0
    outer loop
      vertex -4.20581 -82 -13.5537
      vertex -22.25 -82 0
      vertex -2.12105 -82 -13.139
    endloop
  endfacet
  facet normal 0 1 -0
    outer loop
      vertex -6.21861 -82 -14.237
      vertex -22.25 -82 0
      vertex -4.20581 -82 -13.5537
    endloop
  endfacet
  facet normal 0 1 -0
    outer loop
      vertex -8.125 -82 -15.1771
      vertex -22.25 -82 0
      vertex -6.21861 -82 -14.237
    endloop
  endfacet
  facet normal 0 1 -0
    outer loop
      vertex -9.89237 -82 -16.358
      vertex -22.25 -82 0
      vertex -8.125 -82 -15.1771
    endloop
  endfacet
  facet normal 0 1 -0
    outer loop
      vertex -11.4905 -82 -17.7595
      vertex -22.25 -82 0
      vertex -9.89237 -82 -16.358
    endloop
  endfacet
  facet normal 0 1 -0
    outer loop
      vertex -12.892 -82 -19.3576
      vertex -22.25 -82 0
      vertex -11.4905 -82 -17.7595
    endloop
  endfacet
  facet normal 0 1 0
    outer loop
      vertex -22.25 -82 0
      vertex -12.892 -82 -19.3576
      vertex -26.25 -82 0
    endloop
  endfacet
  facet normal 0 1 -0
    outer loop
      vertex -14.0729 -82 -21.125
      vertex -26.25 -82 0
      vertex -12.892 -82 -19.3576
    endloop
  endfacet
  facet normal 0 1 -0
    outer loop
      vertex -15.013 -82 -23.0314
      vertex -26.25 -82 0
      vertex -14.0729 -82 -21.125
    endloop
  endfacet
  facet normal 0 1 -0
    outer loop
      vertex -15.6963 -82 -25.0442
      vertex -26.25 -82 0
      vertex -15.013 -82 -23.0314
    endloop
  endfacet
  facet normal 0 1 -0
    outer loop
      vertex -16.111 -82 -27.1289
      vertex -26.25 -82 0
      vertex -15.6963 -82 -25.0442
    endloop
  endfacet
  facet normal 0 1 -0
    outer loop
      vertex -16.25 -82 -29.25
      vertex -26.25 -82 0
      vertex -16.111 -82 -27.1289
    endloop
  endfacet
  facet normal 0 1 0
    outer loop
      vertex -26.25 -82 -54.5
      vertex -16.25 -82 -29.25
      vertex -16.111 -82 -31.371
    endloop
  endfacet
  facet normal 0 1 0
    outer loop
      vertex -26.25 -82 -54.5
      vertex -16.111 -82 -31.371
      vertex -15.6963 -82 -33.4558
    endloop
  endfacet
  facet normal 0 1 0
    outer loop
      vertex -26.25 -82 -54.5
      vertex 0 -82 -45.5
      vertex 26.25 -82 -54.5
    endloop
  endfacet
  facet normal 0 1 0
    outer loop
      vertex 0 -82 -45.5
      vertex -26.25 -82 -54.5
      vertex -2.12105 -82 -45.361
    endloop
  endfacet
  facet normal 0 1 0
    outer loop
      vertex -16.25 -82 -29.25
      vertex -26.25 -82 -54.5
      vertex -26.25 -82 0
    endloop
  endfacet
  facet normal 0 1 0
    outer loop
      vertex -15.013 -82 -35.4686
      vertex -26.25 -82 -54.5
      vertex -15.6963 -82 -33.4558
    endloop
  endfacet
  facet normal 0 1 0
    outer loop
      vertex -14.0729 -82 -37.375
      vertex -26.25 -82 -54.5
      vertex -15.013 -82 -35.4686
    endloop
  endfacet
  facet normal 0 1 0
    outer loop
      vertex -12.892 -82 -39.1424
      vertex -26.25 -82 -54.5
      vertex -14.0729 -82 -37.375
    endloop
  endfacet
  facet normal 0 1 0
    outer loop
      vertex -11.4905 -82 -40.7405
      vertex -26.25 -82 -54.5
      vertex -12.892 -82 -39.1424
    endloop
  endfacet
  facet normal 0 1 0
    outer loop
      vertex -9.89237 -82 -42.142
      vertex -26.25 -82 -54.5
      vertex -11.4905 -82 -40.7405
    endloop
  endfacet
  facet normal 0 1 0
    outer loop
      vertex -8.125 -82 -43.3229
      vertex -26.25 -82 -54.5
      vertex -9.89237 -82 -42.142
    endloop
  endfacet
  facet normal 0 1 0
    outer loop
      vertex -6.21861 -82 -44.263
      vertex -26.25 -82 -54.5
      vertex -8.125 -82 -43.3229
    endloop
  endfacet
  facet normal 0 1 0
    outer loop
      vertex -4.20581 -82 -44.9463
      vertex -26.25 -82 -54.5
      vertex -6.21861 -82 -44.263
    endloop
  endfacet
  facet normal 0 1 0
    outer loop
      vertex -2.12105 -82 -45.361
      vertex -26.25 -82 -54.5
      vertex -4.20581 -82 -44.9463
    endloop
  endfacet
  facet normal 0 1 -0
    outer loop
      vertex 64 -82 -101.25
      vertex 26.25 -82 -54.5
      vertex 64 -82 -95.25
    endloop
  endfacet
  facet normal 0 1 0
    outer loop
      vertex 26.25 -82 -54.5
      vertex 64 -82 -101.25
      vertex -26.25 -82 -54.5
    endloop
  endfacet
  facet normal 0 1 0
    outer loop
      vertex -64 -82 -101.25
      vertex -26.25 -82 -54.5
      vertex 64 -82 -101.25
    endloop
  endfacet
  facet normal 0 1 0
    outer loop
      vertex -26.25 -82 -54.5
      vertex -64 -82 -101.25
      vertex -64 -82 -95.25
    endloop
  endfacet
  facet normal 0 -1 0
    outer loop
      vertex -12.892 -84 -19.3576
      vertex -22.25 -84 0
      vertex -26.25 -84 0
    endloop
  endfacet
  facet normal 0 -1 0
    outer loop
      vertex -22.25 -84 0
      vertex 0 -84 -13
      vertex 22.25 -84 0
    endloop
  endfacet
  facet normal 0 -1 0
    outer loop
      vertex 2.12105 -84 -13.139
      vertex 22.25 -84 0
      vertex 0 -84 -13
    endloop
  endfacet
  facet normal 0 -1 0
    outer loop
      vertex -22.25 -84 0
      vertex -2.12105 -84 -13.139
      vertex 0 -84 -13
    endloop
  endfacet
  facet normal 0 -1 0
    outer loop
      vertex -22.25 -84 0
      vertex -4.20581 -84 -13.5537
      vertex -2.12105 -84 -13.139
    endloop
  endfacet
  facet normal 0 -1 0
    outer loop
      vertex -22.25 -84 0
      vertex -6.21861 -84 -14.237
      vertex -4.20581 -84 -13.5537
    endloop
  endfacet
  facet normal 0 -1 0
    outer loop
      vertex -22.25 -84 0
      vertex -8.125 -84 -15.1771
      vertex -6.21861 -84 -14.237
    endloop
  endfacet
  facet normal 0 -1 0
    outer loop
      vertex -22.25 -84 0
      vertex -9.89237 -84 -16.358
      vertex -8.125 -84 -15.1771
    endloop
  endfacet
  facet normal 0 -1 0
    outer loop
      vertex -22.25 -84 0
      vertex -11.4905 -84 -17.7595
      vertex -9.89237 -84 -16.358
    endloop
  endfacet
  facet normal 0 -1 0
    outer loop
      vertex -22.25 -84 0
      vertex -12.892 -84 -19.3576
      vertex -11.4905 -84 -17.7595
    endloop
  endfacet
  facet normal 0 -1 0
    outer loop
      vertex -26.25 -84 0
      vertex -14.0729 -84 -21.125
      vertex -12.892 -84 -19.3576
    endloop
  endfacet
  facet normal 0 -1 0
    outer loop
      vertex -26.25 -84 0
      vertex -15.013 -84 -23.0314
      vertex -14.0729 -84 -21.125
    endloop
  endfacet
  facet normal 0 -1 0
    outer loop
      vertex -26.25 -84 0
      vertex -15.6963 -84 -25.0442
      vertex -15.013 -84 -23.0314
    endloop
  endfacet
  facet normal 0 -1 0
    outer loop
      vertex -26.25 -84 0
      vertex -16.111 -84 -27.1289
      vertex -15.6963 -84 -25.0442
    endloop
  endfacet
  facet normal 0 -1 0
    outer loop
      vertex -26.25 -84 0
      vertex -16.25 -84 -29.25
      vertex -16.111 -84 -27.1289
    endloop
  endfacet
  facet normal 0 -1 0
    outer loop
      vertex -26.25 -84 -54.5
      vertex -16.25 -84 -29.25
      vertex -26.25 -84 0
    endloop
  endfacet
  facet normal 0 -1 -0
    outer loop
      vertex -16.25 -84 -29.25
      vertex -26.25 -84 -54.5
      vertex -16.111 -84 -31.371
    endloop
  endfacet
  facet normal 0 -1 -0
    outer loop
      vertex -2.12105 -84 -45.361
      vertex -26.25 -84 -54.5
      vertex 0 -84 -45.5
    endloop
  endfacet
  facet normal 0 -1 -0
    outer loop
      vertex -4.20581 -84 -44.9463
      vertex -26.25 -84 -54.5
      vertex -2.12105 -84 -45.361
    endloop
  endfacet
  facet normal 0 -1 -0
    outer loop
      vertex -6.21861 -84 -44.263
      vertex -26.25 -84 -54.5
      vertex -4.20581 -84 -44.9463
    endloop
  endfacet
  facet normal 0 -1 -0
    outer loop
      vertex -8.125 -84 -43.3229
      vertex -26.25 -84 -54.5
      vertex -6.21861 -84 -44.263
    endloop
  endfacet
  facet normal 0 -1 -0
    outer loop
      vertex -9.89237 -84 -42.142
      vertex -26.25 -84 -54.5
      vertex -8.125 -84 -43.3229
    endloop
  endfacet
  facet normal 0 -1 -0
    outer loop
      vertex -11.4905 -84 -40.7405
      vertex -26.25 -84 -54.5
      vertex -9.89237 -84 -42.142
    endloop
  endfacet
  facet normal 0 -1 -0
    outer loop
      vertex -12.892 -84 -39.1424
      vertex -26.25 -84 -54.5
      vertex -11.4905 -84 -40.7405
    endloop
  endfacet
  facet normal 0 -1 -0
    outer loop
      vertex -14.0729 -84 -37.375
      vertex -26.25 -84 -54.5
      vertex -12.892 -84 -39.1424
    endloop
  endfacet
  facet normal 0 -1 -0
    outer loop
      vertex -15.013 -84 -35.4686
      vertex -26.25 -84 -54.5
      vertex -14.0729 -84 -37.375
    endloop
  endfacet
  facet normal 0 -1 -0
    outer loop
      vertex -15.6963 -84 -33.4558
      vertex -26.25 -84 -54.5
      vertex -15.013 -84 -35.4686
    endloop
  endfacet
  facet normal 0 -1 -0
    outer loop
      vertex -16.111 -84 -31.371
      vertex -26.25 -84 -54.5
      vertex -15.6963 -84 -33.4558
    endloop
  endfacet
  facet normal 0 -1 0
    outer loop
      vertex -22.25 -84 0
      vertex 22.25 -84 2
      vertex -22.25 -84 2
    endloop
  endfacet
  facet normal 0 -1 -0
    outer loop
      vertex 22.25 -84 2
      vertex -22.25 -84 0
      vertex 22.25 -84 0
    endloop
  endfacet
  facet normal 0 -1 0
    outer loop
      vertex 4.20581 -84 -13.5537
      vertex 22.25 -84 0
      vertex 2.12105 -84 -13.139
    endloop
  endfacet
  facet normal 0 -1 0
    outer loop
      vertex 6.21861 -84 -14.237
      vertex 22.25 -84 0
      vertex 4.20581 -84 -13.5537
    endloop
  endfacet
  facet normal 0 -1 0
    outer loop
      vertex 8.125 -84 -15.1771
      vertex 22.25 -84 0
      vertex 6.21861 -84 -14.237
    endloop
  endfacet
  facet normal 0 -1 0
    outer loop
      vertex 9.89237 -84 -16.358
      vertex 22.25 -84 0
      vertex 8.125 -84 -15.1771
    endloop
  endfacet
  facet normal 0 -1 0
    outer loop
      vertex 11.4905 -84 -17.7595
      vertex 22.25 -84 0
      vertex 9.89237 -84 -16.358
    endloop
  endfacet
  facet normal 0 -1 0
    outer loop
      vertex 12.892 -84 -19.3576
      vertex 22.25 -84 0
      vertex 11.4905 -84 -17.7595
    endloop
  endfacet
  facet normal 0 -1 -0
    outer loop
      vertex 22.25 -84 0
      vertex 12.892 -84 -19.3576
      vertex 26.25 -84 0
    endloop
  endfacet
  facet normal 0 -1 0
    outer loop
      vertex 14.0729 -84 -21.125
      vertex 26.25 -84 0
      vertex 12.892 -84 -19.3576
    endloop
  endfacet
  facet normal 0 -1 0
    outer loop
      vertex 15.013 -84 -23.0314
      vertex 26.25 -84 0
      vertex 14.0729 -84 -21.125
    endloop
  endfacet
  facet normal 0 -1 0
    outer loop
      vertex 15.6963 -84 -25.0442
      vertex 26.25 -84 0
      vertex 15.013 -84 -23.0314
    endloop
  endfacet
  facet normal 0 -1 0
    outer loop
      vertex 16.111 -84 -27.1289
      vertex 26.25 -84 0
      vertex 15.6963 -84 -25.0442
    endloop
  endfacet
  facet normal 0 -1 0
    outer loop
      vertex 16.25 -84 -29.25
      vertex 26.25 -84 0
      vertex 16.111 -84 -27.1289
    endloop
  endfacet
  facet normal 0 -1 0
    outer loop
      vertex 26.25 -84 -54.5
      vertex 16.25 -84 -29.25
      vertex 16.111 -84 -31.371
    endloop
  endfacet
  facet normal 0 -1 0
    outer loop
      vertex 26.25 -84 -54.5
      vertex 16.111 -84 -31.371
      vertex 15.6963 -84 -33.4558
    endloop
  endfacet
  facet normal 0 -1 0
    outer loop
      vertex 26.25 -84 -54.5
      vertex 0 -84 -45.5
      vertex -26.25 -84 -54.5
    endloop
  endfacet
  facet normal 0 -1 0
    outer loop
      vertex 0 -84 -45.5
      vertex 26.25 -84 -54.5
      vertex 2.12105 -84 -45.361
    endloop
  endfacet
  facet normal 0 -1 0
    outer loop
      vertex 16.25 -84 -29.25
      vertex 26.25 -84 -54.5
      vertex 26.25 -84 0
    endloop
  endfacet
  facet normal 0 -1 0
    outer loop
      vertex 15.013 -84 -35.4686
      vertex 26.25 -84 -54.5
      vertex 15.6963 -84 -33.4558
    endloop
  endfacet
  facet normal 0 -1 0
    outer loop
      vertex 14.0729 -84 -37.375
      vertex 26.25 -84 -54.5
      vertex 15.013 -84 -35.4686
    endloop
  endfacet
  facet normal 0 -1 0
    outer loop
      vertex 12.892 -84 -39.1424
      vertex 26.25 -84 -54.5
      vertex 14.0729 -84 -37.375
    endloop
  endfacet
  facet normal 0 -1 0
    outer loop
      vertex 11.4905 -84 -40.7405
      vertex 26.25 -84 -54.5
      vertex 12.892 -84 -39.1424
    endloop
  endfacet
  facet normal 0 -1 0
    outer loop
      vertex 9.89237 -84 -42.142
      vertex 26.25 -84 -54.5
      vertex 11.4905 -84 -40.7405
    endloop
  endfacet
  facet normal 0 -1 0
    outer loop
      vertex 8.125 -84 -43.3229
      vertex 26.25 -84 -54.5
      vertex 9.89237 -84 -42.142
    endloop
  endfacet
  facet normal 0 -1 0
    outer loop
      vertex 6.21861 -84 -44.263
      vertex 26.25 -84 -54.5
      vertex 8.125 -84 -43.3229
    endloop
  endfacet
  facet normal 0 -1 0
    outer loop
      vertex 4.20581 -84 -44.9463
      vertex 26.25 -84 -54.5
      vertex 6.21861 -84 -44.263
    endloop
  endfacet
  facet normal 0 -1 0
    outer loop
      vertex 2.12105 -84 -45.361
      vertex 26.25 -84 -54.5
      vertex 4.20581 -84 -44.9463
    endloop
  endfacet
  facet normal 0 -1 0
    outer loop
      vertex -64 -84 -101.25
      vertex -26.25 -84 -54.5
      vertex -64 -84 -95.25
    endloop
  endfacet
  facet normal 0 -1 -0
    outer loop
      vertex -26.25 -84 -54.5
      vertex -64 -84 -101.25
      vertex 26.25 -84 -54.5
    endloop
  endfacet
  facet normal 0 -1 0
    outer loop
      vertex 64 -84 -101.25
      vertex 26.25 -84 -54.5
      vertex -64 -84 -101.25
    endloop
  endfacet
  facet normal 0 -1 0
    outer loop
      vertex 26.25 -84 -54.5
      vertex 64 -84 -101.25
      vertex 64 -84 -95.25
    endloop
  endfacet
  facet normal -1 0 0
    outer loop
      vertex -22.25 -84 0
      vertex -22.25 -82 2
      vertex -22.25 -82 0
    endloop
  endfacet
  facet normal -1 -0 0
    outer loop
      vertex -22.25 -82 2
      vertex -22.25 -84 0
      vertex -22.25 -84 2
    endloop
  endfacet
  facet normal -0 0 1
    outer loop
      vertex -22.25 -82 2
      vertex 22.25 -84 2
      vertex 22.25 -82 2
    endloop
  endfacet
  facet normal 0 0 1
    outer loop
      vertex 22.25 -84 2
      vertex -22.25 -82 2
      vertex -22.25 -84 2
    endloop
  endfacet
  facet normal 1 -0 0
    outer loop
      vertex 22.25 -84 2
      vertex 22.25 -82 0
      vertex 22.25 -82 2
    endloop
  endfacet
  facet normal 1 0 0
    outer loop
      vertex 22.25 -82 0
      vertex 22.25 -84 2
      vertex 22.25 -84 0
    endloop
  endfacet
  facet normal 1 -0 0
    outer loop
      vertex 64 -84 -95.25
      vertex 64 -82 -101.25
      vertex 64 -82 -95.25
    endloop
  endfacet
  facet normal 1 0 0
    outer loop
      vertex 64 -82 -101.25
      vertex 64 -84 -95.25
      vertex 64 -84 -101.25
    endloop
  endfacet
  facet normal -1 0 0
    outer loop
      vertex -64 -84 -101.25
      vertex -64 -82 -95.25
      vertex -64 -82 -101.25
    endloop
  endfacet
  facet normal -1 -0 0
    outer loop
      vertex -64 -82 -95.25
      vertex -64 -84 -101.25
      vertex -64 -84 -95.25
    endloop
  endfacet
  facet normal 0 0 -1
    outer loop
      vertex -64 -84 -101.25
      vertex 64 -82 -101.25
      vertex 64 -84 -101.25
    endloop
  endfacet
  facet normal -0 0 -1
    outer loop
      vertex 64 -82 -101.25
      vertex -64 -84 -101.25
      vertex -64 -82 -101.25
    endloop
  endfacet
  facet normal 0.733594 -0 0.679588
    outer loop
      vertex 26.25 -84 -54.5
      vertex 64 -82 -95.25
      vertex 26.25 -82 -54.5
    endloop
  endfacet
  facet normal 0.733594 0 0.679588
    outer loop
      vertex 64 -82 -95.25
      vertex 26.25 -84 -54.5
      vertex 64 -84 -95.25
    endloop
  endfacet
  facet normal -0.733594 0 0.679588
    outer loop
      vertex -64 -84 -95.25
      vertex -26.25 -82 -54.5
      vertex -64 -82 -95.25
    endloop
  endfacet
  facet normal -0.733594 0 0.679588
    outer loop
      vertex -26.25 -82 -54.5
      vertex -64 -84 -95.25
      vertex -26.25 -84 -54.5
    endloop
  endfacet
  facet normal -0.99786 0 -0.0653918
    outer loop
      vertex 16.25 -84 -29.25
      vertex 16.111 -82 -27.1289
      vertex 16.25 -82 -29.25
    endloop
  endfacet
  facet normal -0.99786 -0 -0.0653918
    outer loop
      vertex 16.111 -82 -27.1289
      vertex 16.25 -84 -29.25
      vertex 16.111 -84 -27.1289
    endloop
  endfacet
  facet normal -0.997859 0 0.0653948
    outer loop
      vertex 16.111 -84 -31.371
      vertex 16.25 -82 -29.25
      vertex 16.111 -82 -31.371
    endloop
  endfacet
  facet normal -0.997859 0 0.0653948
    outer loop
      vertex 16.25 -82 -29.25
      vertex 16.111 -84 -31.371
      vertex 16.25 -84 -29.25
    endloop
  endfacet
  facet normal -0.555564 0 -0.831474
    outer loop
      vertex 8.125 -84 -15.1771
      vertex 9.89237 -82 -16.358
      vertex 9.89237 -84 -16.358
    endloop
  endfacet
  facet normal -0.555564 0 -0.831474
    outer loop
      vertex 9.89237 -82 -16.358
      vertex 8.125 -84 -15.1771
      vertex 8.125 -82 -15.1771
    endloop
  endfacet
  facet normal 0.442278 0 -0.896878
    outer loop
      vertex -8.125 -84 -15.1771
      vertex -6.21861 -82 -14.237
      vertex -6.21861 -84 -14.237
    endloop
  endfacet
  facet normal 0.442278 0 -0.896878
    outer loop
      vertex -6.21861 -82 -14.237
      vertex -8.125 -84 -15.1771
      vertex -8.125 -82 -15.1771
    endloop
  endfacet
  facet normal 0.896879 0 -0.442276
    outer loop
      vertex -14.0729 -84 -21.125
      vertex -15.013 -82 -23.0314
      vertex -14.0729 -82 -21.125
    endloop
  endfacet
  facet normal 0.896879 0 -0.442276
    outer loop
      vertex -15.013 -82 -23.0314
      vertex -14.0729 -84 -21.125
      vertex -15.013 -84 -23.0314
    endloop
  endfacet
  facet normal -0.321459 0 0.946923
    outer loop
      vertex 4.20581 -82 -44.9463
      vertex 6.21861 -84 -44.263
      vertex 6.21861 -82 -44.263
    endloop
  endfacet
  facet normal -0.321459 0 0.946923
    outer loop
      vertex 6.21861 -84 -44.263
      vertex 4.20581 -82 -44.9463
      vertex 4.20581 -84 -44.9463
    endloop
  endfacet
  facet normal -0.896879 0 0.442276
    outer loop
      vertex 14.0729 -84 -37.375
      vertex 15.013 -82 -35.4686
      vertex 14.0729 -82 -37.375
    endloop
  endfacet
  facet normal -0.896879 0 0.442276
    outer loop
      vertex 15.013 -82 -35.4686
      vertex 14.0729 -84 -37.375
      vertex 15.013 -84 -35.4686
    endloop
  endfacet
  facet normal -0.65934 0 0.751845
    outer loop
      vertex 9.89237 -82 -42.142
      vertex 11.4905 -84 -40.7405
      vertex 11.4905 -82 -40.7405
    endloop
  endfacet
  facet normal -0.65934 0 0.751845
    outer loop
      vertex 11.4905 -84 -40.7405
      vertex 9.89237 -82 -42.142
      vertex 9.89237 -84 -42.142
    endloop
  endfacet
  facet normal 0.0653933 0 0.99786
    outer loop
      vertex -2.12105 -82 -45.361
      vertex 0 -84 -45.5
      vertex 0 -82 -45.5
    endloop
  endfacet
  facet normal 0.0653933 0 0.99786
    outer loop
      vertex 0 -84 -45.5
      vertex -2.12105 -82 -45.361
      vertex -2.12105 -84 -45.361
    endloop
  endfacet
  facet normal 0.442278 0 0.896878
    outer loop
      vertex -8.125 -82 -43.3229
      vertex -6.21861 -84 -44.263
      vertex -6.21861 -82 -44.263
    endloop
  endfacet
  facet normal 0.442278 0 0.896878
    outer loop
      vertex -6.21861 -84 -44.263
      vertex -8.125 -82 -43.3229
      vertex -8.125 -84 -43.3229
    endloop
  endfacet
  facet normal 0.896879 -0 0.442276
    outer loop
      vertex -15.013 -84 -35.4686
      vertex -14.0729 -82 -37.375
      vertex -15.013 -82 -35.4686
    endloop
  endfacet
  facet normal 0.896879 0 0.442276
    outer loop
      vertex -14.0729 -82 -37.375
      vertex -15.013 -84 -35.4686
      vertex -14.0729 -84 -37.375
    endloop
  endfacet
  facet normal -0.980783 0 -0.195103
    outer loop
      vertex 16.111 -84 -27.1289
      vertex 15.6963 -82 -25.0442
      vertex 16.111 -82 -27.1289
    endloop
  endfacet
  facet normal -0.980783 -0 -0.195103
    outer loop
      vertex 15.6963 -82 -25.0442
      vertex 16.111 -84 -27.1289
      vertex 15.6963 -84 -25.0442
    endloop
  endfacet
  facet normal -0.896879 0 -0.442276
    outer loop
      vertex 15.013 -84 -23.0314
      vertex 14.0729 -82 -21.125
      vertex 15.013 -82 -23.0314
    endloop
  endfacet
  facet normal -0.896879 -0 -0.442276
    outer loop
      vertex 14.0729 -82 -21.125
      vertex 15.013 -84 -23.0314
      vertex 14.0729 -84 -21.125
    endloop
  endfacet
  facet normal -0.946923 0 -0.321459
    outer loop
      vertex 15.6963 -84 -25.0442
      vertex 15.013 -82 -23.0314
      vertex 15.6963 -82 -25.0442
    endloop
  endfacet
  facet normal -0.946923 -0 -0.321459
    outer loop
      vertex 15.013 -82 -23.0314
      vertex 15.6963 -84 -25.0442
      vertex 15.013 -84 -23.0314
    endloop
  endfacet
  facet normal -0.831478 0 -0.555558
    outer loop
      vertex 14.0729 -84 -21.125
      vertex 12.892 -82 -19.3576
      vertex 14.0729 -82 -21.125
    endloop
  endfacet
  facet normal -0.831478 -0 -0.555558
    outer loop
      vertex 12.892 -82 -19.3576
      vertex 14.0729 -84 -21.125
      vertex 12.892 -84 -19.3576
    endloop
  endfacet
  facet normal -0.65934 0 -0.751845
    outer loop
      vertex 9.89237 -84 -16.358
      vertex 11.4905 -82 -17.7595
      vertex 11.4905 -84 -17.7595
    endloop
  endfacet
  facet normal -0.65934 0 -0.751845
    outer loop
      vertex 11.4905 -82 -17.7595
      vertex 9.89237 -84 -16.358
      vertex 9.89237 -82 -16.358
    endloop
  endfacet
  facet normal -0.751839 0 -0.659347
    outer loop
      vertex 12.892 -84 -19.3576
      vertex 11.4905 -82 -17.7595
      vertex 12.892 -82 -19.3576
    endloop
  endfacet
  facet normal -0.751839 -0 -0.659347
    outer loop
      vertex 11.4905 -82 -17.7595
      vertex 12.892 -84 -19.3576
      vertex 11.4905 -84 -17.7595
    endloop
  endfacet
  facet normal 0.0653933 0 -0.99786
    outer loop
      vertex -2.12105 -84 -13.139
      vertex 0 -82 -13
      vertex 0 -84 -13
    endloop
  endfacet
  facet normal 0.0653933 0 -0.99786
    outer loop
      vertex 0 -82 -13
      vertex -2.12105 -84 -13.139
      vertex -2.12105 -82 -13.139
    endloop
  endfacet
  facet normal -0.321459 0 -0.946923
    outer loop
      vertex 4.20581 -84 -13.5537
      vertex 6.21861 -82 -14.237
      vertex 6.21861 -84 -14.237
    endloop
  endfacet
  facet normal -0.321459 0 -0.946923
    outer loop
      vertex 6.21861 -82 -14.237
      vertex 4.20581 -84 -13.5537
      vertex 4.20581 -82 -13.5537
    endloop
  endfacet
  facet normal -0.442278 0 -0.896878
    outer loop
      vertex 6.21861 -84 -14.237
      vertex 8.125 -82 -15.1771
      vertex 8.125 -84 -15.1771
    endloop
  endfacet
  facet normal -0.442278 0 -0.896878
    outer loop
      vertex 8.125 -82 -15.1771
      vertex 6.21861 -84 -14.237
      vertex 6.21861 -82 -14.237
    endloop
  endfacet
  facet normal -0.195097 0 -0.980784
    outer loop
      vertex 2.12105 -84 -13.139
      vertex 4.20581 -82 -13.5537
      vertex 4.20581 -84 -13.5537
    endloop
  endfacet
  facet normal -0.195097 0 -0.980784
    outer loop
      vertex 4.20581 -82 -13.5537
      vertex 2.12105 -84 -13.139
      vertex 2.12105 -82 -13.139
    endloop
  endfacet
  facet normal 0.99786 0 -0.0653918
    outer loop
      vertex -16.111 -84 -27.1289
      vertex -16.25 -82 -29.25
      vertex -16.111 -82 -27.1289
    endloop
  endfacet
  facet normal 0.99786 0 -0.0653918
    outer loop
      vertex -16.25 -82 -29.25
      vertex -16.111 -84 -27.1289
      vertex -16.25 -84 -29.25
    endloop
  endfacet
  facet normal 0.946923 0 -0.321459
    outer loop
      vertex -15.013 -84 -23.0314
      vertex -15.6963 -82 -25.0442
      vertex -15.013 -82 -23.0314
    endloop
  endfacet
  facet normal 0.946923 0 -0.321459
    outer loop
      vertex -15.6963 -82 -25.0442
      vertex -15.013 -84 -23.0314
      vertex -15.6963 -84 -25.0442
    endloop
  endfacet
  facet normal 0.751839 0 -0.659347
    outer loop
      vertex -11.4905 -84 -17.7595
      vertex -12.892 -82 -19.3576
      vertex -11.4905 -82 -17.7595
    endloop
  endfacet
  facet normal 0.751839 0 -0.659347
    outer loop
      vertex -12.892 -82 -19.3576
      vertex -11.4905 -84 -17.7595
      vertex -12.892 -84 -19.3576
    endloop
  endfacet
  facet normal 0.195097 0 -0.980784
    outer loop
      vertex -4.20581 -84 -13.5537
      vertex -2.12105 -82 -13.139
      vertex -2.12105 -84 -13.139
    endloop
  endfacet
  facet normal 0.195097 0 -0.980784
    outer loop
      vertex -2.12105 -82 -13.139
      vertex -4.20581 -84 -13.5537
      vertex -4.20581 -82 -13.5537
    endloop
  endfacet
  facet normal 0.555564 0 -0.831474
    outer loop
      vertex -9.89237 -84 -16.358
      vertex -8.125 -82 -15.1771
      vertex -8.125 -84 -15.1771
    endloop
  endfacet
  facet normal 0.555564 0 -0.831474
    outer loop
      vertex -8.125 -82 -15.1771
      vertex -9.89237 -84 -16.358
      vertex -9.89237 -82 -16.358
    endloop
  endfacet
  facet normal 0.65934 0 -0.751845
    outer loop
      vertex -11.4905 -84 -17.7595
      vertex -9.89237 -82 -16.358
      vertex -9.89237 -84 -16.358
    endloop
  endfacet
  facet normal 0.65934 0 -0.751845
    outer loop
      vertex -9.89237 -82 -16.358
      vertex -11.4905 -84 -17.7595
      vertex -11.4905 -82 -17.7595
    endloop
  endfacet
  facet normal -0.946923 0 0.321459
    outer loop
      vertex 15.013 -84 -35.4686
      vertex 15.6963 -82 -33.4558
      vertex 15.013 -82 -35.4686
    endloop
  endfacet
  facet normal -0.946923 0 0.321459
    outer loop
      vertex 15.6963 -82 -33.4558
      vertex 15.013 -84 -35.4686
      vertex 15.6963 -84 -33.4558
    endloop
  endfacet
  facet normal -0.980785 0 0.195094
    outer loop
      vertex 15.6963 -84 -33.4558
      vertex 16.111 -82 -31.371
      vertex 15.6963 -82 -33.4558
    endloop
  endfacet
  facet normal -0.980785 0 0.195094
    outer loop
      vertex 16.111 -82 -31.371
      vertex 15.6963 -84 -33.4558
      vertex 16.111 -84 -31.371
    endloop
  endfacet
  facet normal -0.195097 0 0.980784
    outer loop
      vertex 2.12105 -82 -45.361
      vertex 4.20581 -84 -44.9463
      vertex 4.20581 -82 -44.9463
    endloop
  endfacet
  facet normal -0.195097 0 0.980784
    outer loop
      vertex 4.20581 -84 -44.9463
      vertex 2.12105 -82 -45.361
      vertex 2.12105 -84 -45.361
    endloop
  endfacet
  facet normal -0.442278 0 0.896878
    outer loop
      vertex 6.21861 -82 -44.263
      vertex 8.125 -84 -43.3229
      vertex 8.125 -82 -43.3229
    endloop
  endfacet
  facet normal -0.442278 0 0.896878
    outer loop
      vertex 8.125 -84 -43.3229
      vertex 6.21861 -82 -44.263
      vertex 6.21861 -84 -44.263
    endloop
  endfacet
  facet normal 0.321459 0 0.946923
    outer loop
      vertex -6.21861 -82 -44.263
      vertex -4.20581 -84 -44.9463
      vertex -4.20581 -82 -44.9463
    endloop
  endfacet
  facet normal 0.321459 0 0.946923
    outer loop
      vertex -4.20581 -84 -44.9463
      vertex -6.21861 -82 -44.263
      vertex -6.21861 -84 -44.263
    endloop
  endfacet
  facet normal 0.946923 -0 0.321459
    outer loop
      vertex -15.6963 -84 -33.4558
      vertex -15.013 -82 -35.4686
      vertex -15.6963 -82 -33.4558
    endloop
  endfacet
  facet normal 0.946923 0 0.321459
    outer loop
      vertex -15.013 -82 -35.4686
      vertex -15.6963 -84 -33.4558
      vertex -15.013 -84 -35.4686
    endloop
  endfacet
  facet normal 0.831478 -0 0.555558
    outer loop
      vertex -14.0729 -84 -37.375
      vertex -12.892 -82 -39.1424
      vertex -14.0729 -82 -37.375
    endloop
  endfacet
  facet normal 0.831478 0 0.555558
    outer loop
      vertex -12.892 -82 -39.1424
      vertex -14.0729 -84 -37.375
      vertex -12.892 -84 -39.1424
    endloop
  endfacet
  facet normal 0.751839 -0 0.659347
    outer loop
      vertex -12.892 -84 -39.1424
      vertex -11.4905 -82 -40.7405
      vertex -12.892 -82 -39.1424
    endloop
  endfacet
  facet normal 0.751839 0 0.659347
    outer loop
      vertex -11.4905 -82 -40.7405
      vertex -12.892 -84 -39.1424
      vertex -11.4905 -84 -40.7405
    endloop
  endfacet
  facet normal -0.0653933 0 -0.99786
    outer loop
      vertex 0 -84 -13
      vertex 2.12105 -82 -13.139
      vertex 2.12105 -84 -13.139
    endloop
  endfacet
  facet normal -0.0653933 0 -0.99786
    outer loop
      vertex 2.12105 -82 -13.139
      vertex 0 -84 -13
      vertex 0 -82 -13
    endloop
  endfacet
  facet normal 0.980783 0 -0.195103
    outer loop
      vertex -15.6963 -84 -25.0442
      vertex -16.111 -82 -27.1289
      vertex -15.6963 -82 -25.0442
    endloop
  endfacet
  facet normal 0.980783 0 -0.195103
    outer loop
      vertex -16.111 -82 -27.1289
      vertex -15.6963 -84 -25.0442
      vertex -16.111 -84 -27.1289
    endloop
  endfacet
  facet normal 0.831478 0 -0.555558
    outer loop
      vertex -12.892 -84 -19.3576
      vertex -14.0729 -82 -21.125
      vertex -12.892 -82 -19.3576
    endloop
  endfacet
  facet normal 0.831478 0 -0.555558
    outer loop
      vertex -14.0729 -82 -21.125
      vertex -12.892 -84 -19.3576
      vertex -14.0729 -84 -21.125
    endloop
  endfacet
  facet normal 0.321459 0 -0.946923
    outer loop
      vertex -6.21861 -84 -14.237
      vertex -4.20581 -82 -13.5537
      vertex -4.20581 -84 -13.5537
    endloop
  endfacet
  facet normal 0.321459 0 -0.946923
    outer loop
      vertex -4.20581 -82 -13.5537
      vertex -6.21861 -84 -14.237
      vertex -6.21861 -82 -14.237
    endloop
  endfacet
  facet normal -0.0653933 0 0.99786
    outer loop
      vertex 0 -82 -45.5
      vertex 2.12105 -84 -45.361
      vertex 2.12105 -82 -45.361
    endloop
  endfacet
  facet normal -0.0653933 0 0.99786
    outer loop
      vertex 2.12105 -84 -45.361
      vertex 0 -82 -45.5
      vertex 0 -84 -45.5
    endloop
  endfacet
  facet normal -0.555564 0 0.831474
    outer loop
      vertex 8.125 -82 -43.3229
      vertex 9.89237 -84 -42.142
      vertex 9.89237 -82 -42.142
    endloop
  endfacet
  facet normal -0.555564 0 0.831474
    outer loop
      vertex 9.89237 -84 -42.142
      vertex 8.125 -82 -43.3229
      vertex 8.125 -84 -43.3229
    endloop
  endfacet
  facet normal 0.195097 0 0.980784
    outer loop
      vertex -4.20581 -82 -44.9463
      vertex -2.12105 -84 -45.361
      vertex -2.12105 -82 -45.361
    endloop
  endfacet
  facet normal 0.195097 0 0.980784
    outer loop
      vertex -2.12105 -84 -45.361
      vertex -4.20581 -82 -44.9463
      vertex -4.20581 -84 -44.9463
    endloop
  endfacet
  facet normal 0.65934 0 0.751845
    outer loop
      vertex -11.4905 -82 -40.7405
      vertex -9.89237 -84 -42.142
      vertex -9.89237 -82 -42.142
    endloop
  endfacet
  facet normal 0.65934 0 0.751845
    outer loop
      vertex -9.89237 -84 -42.142
      vertex -11.4905 -82 -40.7405
      vertex -11.4905 -84 -40.7405
    endloop
  endfacet
  facet normal 0.555564 0 0.831474
    outer loop
      vertex -9.89237 -82 -42.142
      vertex -8.125 -84 -43.3229
      vertex -8.125 -82 -43.3229
    endloop
  endfacet
  facet normal 0.555564 0 0.831474
    outer loop
      vertex -8.125 -84 -43.3229
      vertex -9.89237 -82 -42.142
      vertex -9.89237 -84 -42.142
    endloop
  endfacet
  facet normal 0.997859 -0 0.0653948
    outer loop
      vertex -16.25 -84 -29.25
      vertex -16.111 -82 -31.371
      vertex -16.25 -82 -29.25
    endloop
  endfacet
  facet normal 0.997859 0 0.0653948
    outer loop
      vertex -16.111 -82 -31.371
      vertex -16.25 -84 -29.25
      vertex -16.111 -84 -31.371
    endloop
  endfacet
  facet normal 0.980785 -0 0.195094
    outer loop
      vertex -16.111 -84 -31.371
      vertex -15.6963 -82 -33.4558
      vertex -16.111 -82 -31.371
    endloop
  endfacet
  facet normal 0.980785 0 0.195094
    outer loop
      vertex -15.6963 -82 -33.4558
      vertex -16.111 -84 -31.371
      vertex -15.6963 -84 -33.4558
    endloop
  endfacet
  facet normal -0.751839 0 0.659347
    outer loop
      vertex 11.4905 -84 -40.7405
      vertex 12.892 -82 -39.1424
      vertex 11.4905 -82 -40.7405
    endloop
  endfacet
  facet normal -0.751839 0 0.659347
    outer loop
      vertex 12.892 -82 -39.1424
      vertex 11.4905 -84 -40.7405
      vertex 12.892 -84 -39.1424
    endloop
  endfacet
  facet normal -0.831478 0 0.555558
    outer loop
      vertex 12.892 -84 -39.1424
      vertex 14.0729 -82 -37.375
      vertex 12.892 -82 -39.1424
    endloop
  endfacet
  facet normal -0.831478 0 0.555558
    outer loop
      vertex 14.0729 -82 -37.375
      vertex 12.892 -84 -39.1424
      vertex 14.0729 -84 -37.375
    endloop
  endfacet
endsolid OpenSCAD_Model
