solid OpenSCAD_Model
  facet normal -1 0 0
    outer loop
      vertex -74 29 -107.25
      vertex -74 25 0
      vertex -74 29 0
    endloop
  endfacet
  facet normal -1 0 0
    outer loop
      vertex -74 25 0
      vertex -74 -80 0
      vertex -74 25 2
    endloop
  endfacet
  facet normal -1 0 0
    outer loop
      vertex -74 29 -107.25
      vertex -74 -80 0
      vertex -74 25 0
    endloop
  endfacet
  facet normal -1 0 0
    outer loop
      vertex -74 -84 -107.25
      vertex -74 -80 0
      vertex -74 29 -107.25
    endloop
  endfacet
  facet normal -1 -0 0
    outer loop
      vertex -74 -80 0
      vertex -74 -84 -107.25
      vertex -74 -84 0
    endloop
  endfacet
  facet normal -1 -0 0
    outer loop
      vertex -74 25 2
      vertex -74 -80 0
      vertex -74 -80 2
    endloop
  endfacet
  facet normal -0 0 1
    outer loop
      vertex -74 -80 0
      vertex -72 -84 0
      vertex -72 -80 0
    endloop
  endfacet
  facet normal 0 0 1
    outer loop
      vertex -72 -84 0
      vertex -74 -80 0
      vertex -74 -84 0
    endloop
  endfacet
  facet normal -0 0 1
    outer loop
      vertex -74 29 0
      vertex -72 25 0
      vertex -72 29 0
    endloop
  endfacet
  facet normal 0 0 1
    outer loop
      vertex -72 25 0
      vertex -74 29 0
      vertex -74 25 0
    endloop
  endfacet
  facet normal 1 0 0
    outer loop
      vertex -72 25 2
      vertex -72 -80 2
      vertex -72 25 0
    endloop
  endfacet
  facet normal 1 -0 0
    outer loop
      vertex -72 25 0
      vertex -72 29 -107.25
      vertex -72 29 0
    endloop
  endfacet
  facet normal 1 0 0
    outer loop
      vertex -72 -80 0
      vertex -72 25 0
      vertex -72 -80 2
    endloop
  endfacet
  facet normal 1 0 0
    outer loop
      vertex -72 25 0
      vertex -72 -80 0
      vertex -72 29 -107.25
    endloop
  endfacet
  facet normal 1 0 0
    outer loop
      vertex -72 -84 -107.25
      vertex -72 -80 0
      vertex -72 -84 0
    endloop
  endfacet
  facet normal 1 0 0
    outer loop
      vertex -72 -80 0
      vertex -72 -84 -107.25
      vertex -72 29 -107.25
    endloop
  endfacet
  facet normal 0 0 -1
    outer loop
      vertex -74 -84 -107.25
      vertex -72 29 -107.25
      vertex -72 -84 -107.25
    endloop
  endfacet
  facet normal -0 0 -1
    outer loop
      vertex -72 29 -107.25
      vertex -74 -84 -107.25
      vertex -74 29 -107.25
    endloop
  endfacet
  facet normal 0 -1 0
    outer loop
      vertex -74 -84 -107.25
      vertex -72 -84 0
      vertex -74 -84 0
    endloop
  endfacet
  facet normal 0 -1 -0
    outer loop
      vertex -72 -84 0
      vertex -74 -84 -107.25
      vertex -72 -84 -107.25
    endloop
  endfacet
  facet normal 0 1 -0
    outer loop
      vertex -72 29 -107.25
      vertex -74 29 0
      vertex -72 29 0
    endloop
  endfacet
  facet normal 0 1 0
    outer loop
      vertex -74 29 0
      vertex -72 29 -107.25
      vertex -74 29 -107.25
    endloop
  endfacet
  facet normal -0 0 1
    outer loop
      vertex -74 25 2
      vertex -72 -80 2
      vertex -72 25 2
    endloop
  endfacet
  facet normal 0 0 1
    outer loop
      vertex -72 -80 2
      vertex -74 25 2
      vertex -74 -80 2
    endloop
  endfacet
  facet normal 0 1 -0
    outer loop
      vertex -72 25 0
      vertex -74 25 2
      vertex -72 25 2
    endloop
  endfacet
  facet normal 0 1 0
    outer loop
      vertex -74 25 2
      vertex -72 25 0
      vertex -74 25 0
    endloop
  endfacet
  facet normal 0 -1 0
    outer loop
      vertex -74 -80 0
      vertex -72 -80 2
      vertex -74 -80 2
    endloop
  endfacet
  facet normal 0 -1 -0
    outer loop
      vertex -72 -80 2
      vertex -74 -80 0
      vertex -72 -80 0
    endloop
  endfacet
endsolid OpenSCAD_Model
